<?xml version="1.0" encoding="utf-8"?>
<!-- Generator: Adobe Illustrator 16.0.0, SVG Export Plug-In . SVG Version: 6.00 Build 0)  -->
<!DOCTYPE svg PUBLIC "-//W3C//DTD SVG 1.1//EN" "http://www.w3.org/Graphics/SVG/1.1/DTD/svg11.dtd">
<svg version="1.1" id="Layer_2" xmlns="http://www.w3.org/2000/svg" xmlns:xlink="http://www.w3.org/1999/xlink" x="0px" y="0px"
	 width="512px" height="499.285px" viewBox="0 0 512 499.285" enable-background="new 0 0 512 499.285" xml:space="preserve">
<path d="M-2,200.761c0,111.982,91.291,202.624,204.067,202.624c112.615,0,204.042-90.642,204.042-202.624
	C406.109,88.778,314.682-2,202.067-2C89.291-2-2,88.778-2,200.761z M62.661,200.761c0-76.545,62.324-138.48,139.419-138.48
	c76.945,0,139.395,61.948,139.395,138.48c0,76.539-62.449,138.5-139.395,138.5C124.985,339.261,62.661,277.3,62.661,200.761z
	 M345.736,386.694l87.767,99.968c14.127,14.104,23.241,14.229,37.606,0l28.18-27.917c13.853-13.841,14.703-22.767,0-37.395
	l-101.094-86.74L345.736,386.694z"/>
</svg>
